Coordinates
version=1
nRows=13
nColumns=36
inDegrees=yes

Units are S.I. units (second, meters, Newtons, ...)
If the header above contains a line with 'inDegrees', this indicates whether rotational values are in degrees (yes) or radians (no).

endheader
time	pelvis_tilt	pelvis_list	pelvis_rotation	pelvis_tx	pelvis_ty	pelvis_tz	hip_flexion_r	hip_adduction_r	hip_rotation_r	knee_angle_r	knee_angle_r_beta	ankle_angle_r	subtalar_angle_r	mtp_angle_r	hip_flexion_l	hip_adduction_l	hip_rotation_l	knee_angle_l	knee_angle_l_beta	ankle_angle_l	subtalar_angle_l	mtp_angle_l	lumbar_extension	lumbar_bending	lumbar_rotation	arm_flex_r	arm_add_r	arm_rot_r	elbow_flex_r	pro_sup_r	arm_flex_l	arm_add_l	arm_rot_l	elbow_flex_l	pro_sup_l
     29.66666670	     -2.01204797	     -0.60525025	      4.08317822	      0.68188615	      1.01333993	      0.84467924	    -10.29718283	      1.15033589	     -4.61384240	     16.29539787	      0.28440835	      4.90805367	     -8.30593892	     -7.49999987	     24.23610504	     -1.30032987	     -0.64544618	     20.73427800	      0.36188142	      1.96022019	      2.25093962	     -7.49999987	     -6.46790583	      3.33584297	      5.99375998	      5.42648814	    -11.17973400	      1.27547311	     25.88525658	     71.11963001	     -2.58592828	     -5.42712606	      0.92195605	     15.31363184	     65.73231473
     29.68333330	     -2.44319117	     -0.34377841	      3.51605191	      0.67863660	      1.01280407	      0.84109460	     -8.68360649	      0.42670318	     -3.28099176	     19.90561586	      0.34741854	      4.10074956	     -9.51295631	     -7.49999987	     24.44595852	     -0.99283873	     -1.00554839	     22.20604225	      0.38756855	      2.12257039	      0.91820633	     -7.49999987	     -5.76724102	      3.07899672	      6.14862961	      5.26279517	    -10.95717279	      1.24445702	     24.95954088	     71.10436368	     -1.71110754	     -5.50563024	      1.38630092	     15.20844401	     66.40260568
     29.70000000	     -3.08795745	     -0.08759533	      2.68122082	      0.67683195	      1.01406349	      0.83873743	     -6.27439546	     -0.25208045	     -1.46906286	     24.31438269	      0.42436603	      2.22856336	    -11.32326617	     -7.49999987	     24.80382740	     -0.86660357	     -1.78707033	     23.53175557	      0.41070661	      2.65754578	     -0.16245682	     -7.49999987	     -5.01484010	      2.74300405	      6.59685795	      5.09136214	    -10.73059872	      1.11041998	     24.03961066	     71.13093198	     -0.80703646	     -5.61706741	      2.04210301	     15.23257482	     67.31147054
     29.71666670	     -3.78283655	      0.15072964	      1.92644772	      0.67675210	      1.01764888	      0.83706710	     -3.41278997	     -0.80308591	      0.25035988	     29.20684701	      0.50975564	     -0.86287770	    -13.20201178	     -7.49999987	     25.07016983	     -0.77265019	     -2.58770421	     24.48003415	      0.42725720	      3.40445794	     -1.02788978	     -7.49999987	     -4.29061579	      2.46008242	      6.84737010	      4.93965426	    -10.49667113	      0.95824848	     23.15610331	     71.29167047	     -0.11352646	     -5.66816947	      1.99333602	     15.60811222	     67.62112686
     29.73333330	     -4.03897432	      0.62172090	      1.23258957	      0.67692419	      1.02215392	      0.83554983	     -0.55915601	     -1.51366625	      1.77633936	     34.63297674	      0.60445947	     -4.71500197	    -14.08389074	     -7.49999987	     24.66292309	     -0.44562190	     -3.48600269	     24.91870426	      0.43491343	      4.21115119	     -1.74865638	     -7.49999987	     -4.27912601	      1.94915737	      6.64776028	      4.92080662	    -10.17990399	      0.90901967	     22.75187406	     71.32921459	      0.57071284	     -5.85672435	      1.94510228	     16.00803939	     67.72712859
     29.75000000	     -5.13422602	      0.96682215	      0.54975371	      0.67862608	      1.02366324	      0.83364673	      3.60641932	     -1.89892858	      3.49504921	     40.37944209	      0.70475421	    -10.46257331	    -15.84654083	     -7.49999987	     25.02587080	     -0.27143088	     -4.55862737	     25.08580996	      0.43782998	      5.17076168	     -1.84313499	     -7.49999987	     -3.01614700	      1.63877582	      6.94083545	      4.54034106	     -9.92485783	      0.83650912	     21.55557165	     71.49924775	      0.99797934	     -5.96543789	      1.54805145	     16.72244193	     67.95809084
     29.76666670	     -5.60836752	      1.65165087	     -0.09791920	      0.68188761	      1.02267303	      0.83086380	      7.13469036	     -2.57084750	      4.98605915	     45.94620098	      0.80191249	    -15.11078636	    -16.21647014	     -7.49999987	     24.64279419	      0.29209683	     -5.62342020	     25.14807455	      0.43891670	      6.14829038	     -2.12843069	     -7.49999987	     -2.55054991	      0.96800057	      6.85417147	      4.27747616	     -9.59480860	      0.80968072	     20.89675120	     71.69722828	      1.31483609	     -6.12376683	      0.92404761	     17.42784306	     68.13783561
     29.78333330	     -6.03571280	      2.29895853	     -0.62787808	      0.68446280	      1.02009093	      0.82780465	     10.16066886	     -3.12115064	      6.15913585	     50.49781427	      0.88135312	    -18.46712417	    -15.87170263	     -7.49999987	     24.19255678	      0.88165793	     -6.49863186	     25.24040838	      0.44052823	      7.17712270	     -2.46669229	     -7.49999987	     -2.03626675	      0.34176794	      6.65542575	      3.97365852	     -9.28675280	      0.76309513	     20.25496611	     71.95569875	      1.41695459	     -6.21157479	     -0.11137058	     18.22037343	     68.34631677
     29.80000000	     -6.30933327	      2.86848859	     -0.99124247	      0.68447118	      1.01858217	      0.82569533	     12.49527541	     -3.54365846	      6.93253460	     54.05767160	      0.94348436	    -20.44549914	    -15.05243601	     -7.49999987	     23.53834841	      1.49471244	     -7.03286970	     25.27740450	      0.44117393	      8.13953918	     -2.89099449	     -7.49999987	     -1.66133886	     -0.23152106	      6.29687431	      3.76455693	     -9.02309955	      0.78509022	     19.58679100	     72.33886858	      1.54050285	     -6.28991413	     -1.33410669	     19.00660846	     68.75196479
     29.81666670	     -6.21843741	      3.16774998	     -1.12285956	      0.68260873	      1.01947279	      0.82466390	     14.05849239	     -3.67211104	      7.20116826	     56.80804666	      0.99148746	    -21.39987725	    -14.34388514	     -7.49999987	     22.47132466	      1.93634523	     -7.16902722	     25.22194046	      0.44020590	      9.03240724	     -3.24321944	     -7.49999987	     -1.80872234	     -0.51318877	      5.92732467	      3.50747786	     -8.90419641	      0.80206392	     19.33534335	     72.37919832	      2.20548239	     -6.41840105	     -1.47967137	     19.47930341	     68.82205176
     29.83333330	     -6.39630651	      3.54819296	     -1.32881729	      0.68031987	      1.02086480	      0.82427838	     15.97235985	     -3.84554681	      7.37059052	     59.14108680	      1.03220669	    -20.56756129	    -13.70051915	     -7.49999987	     21.55727212	      2.37141460	     -7.49550214	     24.87403234	      0.43413376	      9.67121846	     -3.23938481	     -7.49999987	     -1.63381929	     -0.97785401	      5.67326659	      3.42645879	     -8.73945836	      0.86450872	     18.62478287	     72.54373278	      2.88305979	     -6.70642664	     -1.81047938	     20.42679547	     69.06647328
     29.85000000	     -6.36342570	      3.51975226	     -1.34710856	      0.67770413	      1.02189669	      0.82328110	     17.83589776	     -3.66721208	      7.19323546	     60.86862432	      1.06235791	    -18.49671879	    -14.35377419	     -7.49999987	     20.48325423	      2.42556171	     -7.53104780	     24.59204013	      0.42921207	     10.26476736	     -3.11238113	     -7.49999987	     -1.95740405	     -0.94096195	      5.14463128	      3.40376088	     -8.78904239	      0.88828106	     18.40229769	     72.60253605	      3.97799196	     -6.98423712	     -1.92842302	     21.11039414	     69.17068044
     29.86666670	     -6.41687480	      3.63015524	     -1.50336199	      0.67617419	      1.02263715	      0.82221783	     20.13425929	     -3.71814452	      7.23624194	     62.07430979	      1.08340109	    -14.28115155	    -14.53652059	     -7.49999987	     19.46890391	      2.52876423	     -7.90610834	     24.22896628	      0.42287524	     10.80535215	     -2.33916414	     -7.49999987	     -2.26741302	     -0.98469989	      4.57079566	      3.59478565	     -8.83905147	      0.81478316	     17.70461588	     72.35199149	      4.73890448	     -7.25258562	     -2.53672176	     22.40338981	     69.17640714
